<svg width="10" height="12" viewBox="0 0 10 12" fill="none" xmlns="http://www.w3.org/2000/svg">
<path d="M8.8101 2.60156C7.96875 2.83594 7.42989 3.23047 7.19351 3.78516C6.95713 4.33985 6.86699 4.82812 6.92308 5.25C6.61859 4.90625 6.38822 4.54688 6.23197 4.17188C6.07572 3.79687 5.96354 3.39453 5.89543 2.96484C5.82732 2.53515 5.78926 2.07617 5.78125 1.58789C5.77324 1.09961 5.76923 0.570315 5.76923 0C4.80769 0.351564 4.11058 0.843747 3.67788 1.47656C3.24519 2.10938 2.96074 2.76367 2.82452 3.43945C2.6883 4.11524 2.64022 4.75781 2.68029 5.36719C2.72035 5.97657 2.72436 6.4375 2.69231 6.75C2.45192 6.55469 2.25561 6.3086 2.10337 6.01172C1.95112 5.71484 1.83293 5.42578 1.7488 5.14453C1.66466 4.86328 1.60857 4.62305 1.58053 4.42383C1.55248 4.22461 1.53846 4.125 1.53846 4.125C1.28205 4.25 1.05769 4.42578 0.865385 4.65234C0.673076 4.87891 0.512821 5.12891 0.384615 5.40234C0.25641 5.67578 0.160257 5.96094 0.0961538 6.25781C0.032051 6.55469 0 6.84375 0 7.125C0 7.79688 0.130207 8.42968 0.390625 9.02344C0.651043 9.61719 1.00761 10.1348 1.46034 10.5762C1.91306 11.0176 2.44391 11.3652 3.05288 11.6191C3.66186 11.873 4.31089 12 5 12C5.68911 12 6.33814 11.873 6.94712 11.6191C7.55609 11.3652 8.08694 11.0176 8.53966 10.5762C8.99239 10.1348 9.34896 9.61719 9.60938 9.02344C9.86979 8.42968 10 7.79688 10 7.125C10 6.72656 9.9379 6.36914 9.8137 6.05273C9.6895 5.73633 9.55128 5.41406 9.39904 5.08594C9.24679 4.75781 9.11058 4.39844 8.99039 4.00781C8.87019 3.61719 8.8101 3.14844 8.8101 2.60156Z" fill="#EA6C26"/>
</svg>
