<svg width="83" height="79" viewBox="0 0 83 79" fill="none" xmlns="http://www.w3.org/2000/svg">
<path d="M78.9711 76.7099C78.8084 75.2245 77.8458 67.859 74.2506 61.6748C73.0415 59.6116 71.5504 57.763 69.8163 56.1777C69.5536 55.9385 69.2896 55.7058 69.0268 55.4828L69.2028 54.8413C69.3703 54.2324 69.1473 53.5825 68.6404 53.2038C66.8353 51.8541 65.006 50.8496 63.2039 50.2178C61.3668 49.5733 59.4766 49.0762 57.5546 48.7575C56.2358 48.5381 53.3403 47.6815 53.0209 49.6996C53.0203 49.7032 53.0112 49.7573 52.9925 49.8547C52.2621 49.8318 52.1524 49.8252 51.4351 49.8252L51.4363 42.8072C53.3614 40.9274 54.7977 38.5894 55.5927 36.0339H56.2774C57.8933 36.0339 59.4103 35.4063 60.5477 34.2695C61.6898 33.1332 62.3185 31.6195 62.3185 30.0084C62.3179 29.991 62.3179 29.9735 62.3185 29.9561C62.3185 28.345 61.6898 26.8318 60.5501 25.6974C60.4989 25.6463 60.4464 25.5976 60.394 25.5489C60.4494 25.3902 60.4808 25.2207 60.4808 25.044V21.0564C60.4808 19.6912 59.6816 18.5093 58.5261 17.9496C58.311 14.5891 57.1875 11.3825 55.2449 8.6117C53.321 5.86858 50.7233 3.72663 47.6904 2.36679C47.6018 1.97603 47.4367 1.6009 47.1968 1.26786C46.626 0.473719 45.7008 0 44.7214 0H35.51C34.5306 0 33.6054 0.473719 33.0346 1.26786C32.7947 1.60151 32.6296 1.97603 32.541 2.36739C29.5093 3.72783 26.9115 5.86858 24.9883 8.6117C23.0463 11.3819 21.9234 14.5873 21.707 17.9466C21.3623 18.1125 21.0452 18.3374 20.768 18.6145C20.1128 19.265 19.7524 20.1318 19.7524 21.0558L19.7506 25.0434C19.7506 25.2171 19.7819 25.3872 19.838 25.5483C19.7862 25.5964 19.7343 25.6445 19.6837 25.695C18.5421 26.8318 17.9129 28.345 17.9129 29.9561C17.9135 29.9735 17.9135 29.991 17.9129 30.0084C17.9129 31.6195 18.5421 33.1326 19.6819 34.267C20.8216 35.4063 22.3387 36.0333 23.954 36.0333H24.6399C25.4361 38.59 26.873 40.9286 28.7981 42.8078L28.7993 49.8C28.5407 49.8072 27.6366 49.8168 27.3322 49.8288C27.3316 49.8216 27.3316 49.8168 27.331 49.8162C27.2021 48.2321 25.5645 48.3614 24.3958 48.4275C21.1465 48.6109 17.8092 49.3214 14.8215 50.6266C13.3238 51.286 11.8694 52.1241 10.4982 53.1154C9.97805 53.4911 9.74601 54.15 9.91597 54.7674L10.0859 55.389C9.78036 55.6439 9.47779 55.9084 9.18125 56.1807C7.45024 57.7624 5.9591 59.6104 4.74582 61.6796C1.1542 67.859 0.192251 75.2239 0.0289132 76.7099C0.00902334 76.853 -0.00604473 76.9877 0.00239339 77.1416C0.0463921 77.9532 0.722044 78.603 1.54597 78.603H77.4571C78.2997 78.603 78.985 77.9285 78.9994 77.0911C79.003 76.9576 78.9892 76.8374 78.9711 76.7099ZM59.2319 30.0457C59.2223 30.8194 58.9161 31.5444 58.3652 32.0932C57.8089 32.6493 57.0676 32.9553 56.2774 32.9553C56.2611 32.9553 56.2448 32.9553 56.2292 32.9553C56.2882 32.389 56.319 31.8197 56.319 31.2504V27.0092C57.0935 27.02 57.8192 27.3248 58.3676 27.8736C58.9173 28.4207 59.2235 29.1463 59.2325 29.9218C59.2301 29.9627 59.2301 30.0042 59.2319 30.0457ZM42.4292 9.66314H37.8021L35.566 3.07797H44.6659L42.4292 9.66314ZM27.5173 10.3755C28.9741 8.29729 30.8937 6.63206 33.1286 5.49526L35.2345 11.6957C35.4063 12.2019 35.8252 12.6179 36.3297 12.7411C36.4484 12.77 43.5358 12.7411 43.5358 12.7411H43.537C44.1988 12.7411 44.7865 12.3203 44.9986 11.6957L47.104 5.49526C49.3388 6.63146 51.2585 8.29729 52.7153 10.3755C54.5229 12.9533 55.4782 15.9856 55.4782 19.1447C55.4782 19.9948 56.1689 20.6837 57.0211 20.6837C57.2273 20.6837 57.3948 20.8508 57.3948 21.0558V23.5044H22.8371L22.8383 21.0558C22.8383 20.8526 23.0083 20.6837 23.2114 20.6837H42.2972C43.1489 20.6837 43.8402 19.9948 43.8402 19.1447C43.8402 18.2947 43.1489 17.6057 42.2972 17.6057H24.8334C25.0925 15.0057 26.0057 12.5313 27.5173 10.3755ZM23.954 32.9553C23.1644 32.9553 22.4225 32.6493 21.8637 32.0908C21.3147 31.5438 21.0085 30.8182 20.9994 30.0433C21.0012 30.0018 21.0012 29.9603 20.9994 29.9188C21.0091 29.1445 21.3153 28.4195 21.8662 27.8712C22.4134 27.3242 23.1397 27.0188 23.9154 27.0092V31.2504C23.9154 31.8185 23.9437 32.3902 24.007 32.9553C23.9889 32.9553 23.9715 32.9553 23.954 32.9553ZM27.328 34.1654C27.1153 33.2102 27.0014 32.2291 27.0014 31.2504V26.5829H53.233V31.2504C53.233 32.2267 53.1245 33.203 52.907 34.1546C52.3048 36.807 50.8589 39.2321 48.8103 41.0446C45.0336 44.3811 39.5084 45.2624 34.8789 43.2485C33.6174 42.6996 32.4457 41.9487 31.4163 41.0374C29.3719 39.2255 27.9277 36.804 27.328 34.1654ZM30.3428 52.905C31.1951 52.905 31.8858 52.216 31.8858 51.366L31.8846 45.1728C32.8435 45.7385 33.8603 46.2032 34.9284 46.5645C38.2668 47.6851 41.9694 47.6893 45.3072 46.5633C46.3747 46.2032 47.3908 45.7385 48.3498 45.1728L48.3492 51.366C48.3492 51.7742 48.5113 52.1656 48.8012 52.4541C49.0905 52.7427 49.4829 52.905 49.8921 52.905C50.1495 52.905 51.4219 52.9008 52.0903 52.9104C51.7148 53.8837 51.2031 54.9844 50.5154 56.0755C48.1822 59.7763 44.3977 62.0265 39.9924 62.1413C35.4377 62.2597 31.4525 60.1815 29.267 56.1555C28.654 55.0253 28.2315 53.9029 27.9416 52.905C28.6884 52.8809 30.2205 52.905 30.3428 52.905ZM7.41287 63.2282C8.40254 61.5407 9.60557 60.021 10.9961 58.702L12.762 65.1375V75.525H3.30833C3.72842 72.925 4.83984 67.6552 7.41287 63.2282ZM15.848 64.9307C15.848 64.7936 15.8293 64.6566 15.7931 64.5243L13.1815 55.0085C14.1139 54.4019 15.0813 53.8771 16.0692 53.4418C17.9774 52.6002 20.2647 52.0153 23.2669 51.5993C23.3181 51.5926 24.4386 51.4502 24.4386 51.4502C24.45 51.5163 24.4711 51.6419 24.4832 51.7075C24.8123 53.4803 25.7013 56.8901 27.9597 59.8106C28.8734 60.9919 29.9306 61.9862 31.1143 62.7875C32.8423 63.9694 35.0254 64.8544 37.7738 65.1249C37.7816 65.1261 37.7895 65.1267 37.7979 65.1273C37.8739 65.1351 37.9492 65.1441 38.0263 65.1507V75.525H15.848V64.9307ZM41.1123 65.1507C45.3102 64.8081 48.8097 63.0442 51.5303 59.8911C53.585 57.5093 54.9418 54.6171 55.7554 51.5975C55.7554 51.5975 55.7554 51.5975 55.8898 51.6161C58.0301 51.9016 60.1469 52.4084 62.1805 53.1214C63.4118 53.553 64.6739 54.2047 65.9426 55.0632L63.3455 64.5243C63.3094 64.6572 63.2913 64.7936 63.2913 64.9313V75.525H41.1123V65.1507ZM66.3766 75.525V65.1375L68.1149 58.8066C69.4571 60.0997 70.6234 61.5846 71.5841 63.2234C74.1596 67.654 75.2716 72.925 75.6917 75.525H66.3766Z" fill="black"/>
<path d="M71.4816 7.61772C73.6056 5.89384 75.5849 5.96516 76.8115 6.92637C77.7417 7.75803 77.9731 8.68881 77.8215 9.43752C77.6662 10.2045 77.0639 11.0013 75.8887 11.4355C75.7983 11.4689 75.707 11.5026 75.6146 11.5367C73.2271 12.4176 70.1743 13.5441 66.9037 15.5856C68.0139 11.5982 69.7486 9.02428 71.4816 7.61772Z" stroke="black" stroke-width="2.5"/>
<path d="M81.549 20.802C81.5992 21.7679 81.2141 22.3794 80.7466 22.6891C80.2645 23.0086 79.5134 23.1266 78.6233 22.7204C78.5489 22.6864 78.4738 22.6521 78.3977 22.6173C76.583 21.7881 74.2792 20.7354 71.3821 20.0157C74.159 18.5404 76.4925 18.1143 78.1963 18.2858C80.3945 18.5071 81.4066 19.6508 81.549 20.802Z" stroke="black" stroke-width="2.5"/>
</svg>
