<svg width="232" height="49" viewBox="0 0 232 49" fill="none" xmlns="http://www.w3.org/2000/svg">
<g clip-path="url(#clip0_501_1448)">
<path d="M29.3207 38.4024C30.1882 36.7203 30.9173 34.928 31.508 33.0253C31.6187 32.6577 31.388 32.2624 31.0096 32.1797L28.4993 31.6374C28.1578 31.5639 27.8164 31.7753 27.7241 32.1062C27.521 32.7864 27.2995 33.439 27.0596 34.0548C26.995 32.9702 26.9396 32.0326 26.9119 31.233C26.9027 30.8561 27.198 30.5528 27.5764 30.5528H31.0096C31.3788 30.5528 31.6741 30.2587 31.6741 29.891V27.538C31.6741 27.1703 31.3788 26.8762 31.0096 26.8762H27.4103C27.0503 26.8762 26.755 26.5821 26.7458 26.2236C26.7273 25.378 26.7181 24.6059 26.7089 23.8982C26.6996 23.1904 27.6687 22.9698 27.9732 23.604C28.1117 23.8982 28.2317 24.1739 28.3516 24.4496C28.4993 24.8173 28.9331 24.9828 29.2838 24.7805L31.3972 23.5856C31.6926 23.4202 31.8218 23.0617 31.6833 22.7584C31.4065 22.1426 31.0558 21.4532 30.6128 20.6995C30.1421 19.8906 29.6437 19.1645 29.1269 18.4935C28.9331 18.2362 28.5731 18.1718 28.287 18.3189L27.6687 18.6406C27.2257 18.8704 26.6904 18.5487 26.6996 18.0432V17.2435C26.7181 16.8758 26.4135 16.5725 26.0444 16.5725H23.1649C22.7957 16.5725 22.5004 16.8758 22.5004 17.2435C22.5373 21.1499 22.5835 24.1279 22.6389 26.1868C22.6481 26.5545 22.3528 26.8578 21.9744 26.8578H21.5221C21.0699 26.8578 20.7469 26.4166 20.8946 25.9846L21.5775 23.9809C21.7067 23.5948 21.4668 23.1904 21.0607 23.1169L19.9624 22.9239H21.4575C21.8267 22.9239 22.122 22.6297 22.122 22.2621V20.148C22.122 19.7804 21.8267 19.4862 21.4575 19.4862H19.8978C19.5287 19.4862 19.2333 19.1921 19.2333 18.8244V17.3722C19.2333 17.0045 18.938 16.7104 18.5688 16.7104H15.8094C15.4402 16.7104 15.1449 17.0045 15.1449 17.3722V18.8244C15.1449 19.1921 14.8495 19.4862 14.4804 19.4862H12.9207C12.5515 19.4862 12.2562 19.1921 12.2562 18.8244V18.3924C12.2562 18.0248 11.9608 17.7306 11.5917 17.7306H1.2459C0.876741 17.7306 0.581411 18.0248 0.581411 18.3924V21.9312H1.78119V38.7608C1.78119 39.0917 1.54123 39.3675 1.20899 39.4134L0.572182 39.5054C0.193791 39.5605 -0.0553933 39.9098 0.00921005 40.2774L0.562953 43.3015C0.627557 43.6691 0.98749 43.9081 1.34742 43.8346L6.19268 42.8419C6.60799 42.7592 6.98638 43.0717 6.98638 43.4945V47.3457C6.98638 47.7134 7.28171 48.0075 7.65087 48.0075H10.3088C10.678 48.0075 10.9733 47.7134 10.9733 47.3457V21.9312H12.0993V22.9239H14.2589L13.2529 23.1628C12.893 23.2456 12.6807 23.6132 12.773 23.9717C12.9483 24.6978 13.0683 25.4239 13.1422 26.1501C13.1791 26.5361 12.8653 26.867 12.4777 26.867H12.2746C11.9055 26.867 11.6101 27.1611 11.6101 27.5288V29.8818C11.6101 30.2495 11.9055 30.5436 12.2746 30.5436H22.2051C22.5558 30.5436 22.8511 30.8286 22.8696 31.1778C23.0449 34.5787 23.3126 37.4832 23.691 39.8914C23.7187 40.0752 23.6725 40.2499 23.5618 40.3969C23.4233 40.5624 23.2664 40.7554 23.0819 40.9668C22.6758 41.4264 21.919 41.1414 21.919 40.5348V32.3727C21.919 32.0051 21.6237 31.7109 21.2545 31.7109H13.216C12.8468 31.7109 12.5515 32.0051 12.5515 32.3727V45.2133C12.5515 45.581 12.8468 45.8751 13.216 45.8751H15.5048C15.874 45.8751 16.1693 45.581 16.1693 45.2133V44.717C16.1693 44.3493 16.4646 44.0552 16.8338 44.0552H19.7225C19.4456 44.2482 19.1872 44.4228 18.9288 44.5883C18.5781 44.8089 18.5227 45.2868 18.8088 45.5901C19.0672 45.8659 19.3625 46.1876 19.6763 46.5461C20.0178 46.9321 20.2947 47.2814 20.5162 47.5847C20.7377 47.888 21.153 47.9432 21.4483 47.7318C22.4081 47.0424 23.3218 46.2795 24.1801 45.4431C24.5031 45.1306 25.0384 45.2133 25.2414 45.6177C26.0167 47.1987 27.0134 48.0075 28.2224 48.0259C28.9792 48.0259 29.7083 47.5479 30.4282 46.5828C31.1019 45.6821 31.6464 44.1011 32.0617 41.8584C32.1079 41.6102 31.9971 41.3437 31.7848 41.1966C31.4157 40.9392 31.0004 40.6083 30.5205 40.2131C30.0682 39.8363 29.6899 39.4778 29.4038 39.1561C29.2192 38.9447 29.1823 38.6597 29.3022 38.4116L29.3207 38.4024ZM6.9956 37.9612C6.9956 38.2829 6.76488 38.5586 6.44186 38.6138L5.66662 38.7517V36.1045C5.66662 35.7368 5.96195 35.4427 6.33111 35.4427C6.70028 35.4427 6.9956 35.7368 6.9956 36.1045V37.9612ZM6.33111 31.6006C5.96195 31.6006 5.66662 31.3065 5.66662 30.9389V29.3855C5.66662 29.0178 5.96195 28.7237 6.33111 28.7237C6.70028 28.7237 6.9956 29.0178 6.9956 29.3855V30.9389C6.9956 31.3065 6.70028 31.6006 6.33111 31.6006ZM6.33111 24.8816C5.96195 24.8816 5.66662 24.5875 5.66662 24.2199V22.6021C5.66662 22.2345 5.96195 21.9404 6.33111 21.9404C6.70028 21.9404 6.9956 22.2345 6.9956 22.6021V24.2199C6.9956 24.5875 6.70028 24.8816 6.33111 24.8816ZM15.2002 26.867L15.8555 26.7016C16.1785 26.6188 16.3816 26.3155 16.3539 25.9846C16.3169 25.6078 16.2616 25.2125 16.197 24.7805C16.1416 24.4221 16.0678 24.082 15.9755 23.7419C15.8647 23.3283 16.1877 22.9239 16.6123 22.9239H17.4706C17.8859 22.9239 18.1997 23.2915 18.1258 23.6959C18.0151 24.3393 17.8767 25.0839 17.6921 25.9111C17.6182 26.2696 17.8397 26.628 18.1997 26.7016L18.9472 26.8578H15.191L15.2002 26.867ZM17.5629 40.8289H16.8338C16.4646 40.8289 16.1693 40.5348 16.1693 40.1671V40.066C16.1693 39.6984 16.4646 39.4043 16.8338 39.4043H17.5629C17.932 39.4043 18.2274 39.6984 18.2274 40.066V40.1671C18.2274 40.5348 17.932 40.8289 17.5629 40.8289ZM17.5629 36.3619H16.8338C16.4646 36.3619 16.1693 36.0677 16.1693 35.7001V35.599C16.1693 35.2313 16.4646 34.9372 16.8338 34.9372H17.5629C17.932 34.9372 18.2274 35.2313 18.2274 35.599V35.7001C18.2274 36.0677 17.932 36.3619 17.5629 36.3619ZM28.4624 42.4466C28.2593 42.4466 28.0748 42.0514 27.8902 41.2609C27.8533 41.0955 27.8902 40.9025 27.9732 40.7554C28.4716 39.9466 28.85 39.3123 29.09 38.8711C28.9792 41.2517 28.7669 42.4466 28.4624 42.4466Z" fill="#2FC6BD"/>
<path d="M54.479 32.823C52.5316 28.1629 51.4426 23.705 51.1934 19.4586C51.1934 19.431 51.1934 19.4034 51.1934 19.385L51.258 17.8868C51.2765 17.5375 50.9904 17.2434 50.6397 17.2434H45.7021C45.6837 17.4824 45.6652 17.9052 45.6652 18.5026C45.5729 21.4623 45.2868 24.3301 44.7885 27.1059C44.2901 29.8818 43.118 32.8506 41.263 35.9941C39.5556 38.8986 37.0637 41.3712 33.7874 43.4025C33.409 43.6415 33.3906 44.1654 33.7505 44.4319C34.3042 44.8455 34.8303 45.2867 35.3379 45.7647C35.8916 46.2886 36.3531 46.7942 36.7407 47.2905C36.9438 47.5479 37.3221 47.6214 37.5898 47.4376C42.4443 44.147 46.0067 39.588 48.2863 33.7606C48.4893 33.2458 49.2184 33.2458 49.4214 33.7606C50.492 36.4445 51.9041 38.9262 53.6299 41.2057C55.5772 43.761 58.0691 45.8474 61.1054 47.4651C61.4008 47.6214 61.7607 47.5111 61.936 47.2353C62.2775 46.7114 62.6928 46.1691 63.2004 45.6084C63.6434 45.1121 64.1141 44.6617 64.6032 44.2389C64.9447 43.9448 64.8893 43.4117 64.4925 43.2095C59.6472 40.7186 56.3063 37.2717 54.4605 32.8506L54.479 32.823Z" fill="#2FC6BD"/>
<path d="M103.993 23.0434V22.786C105.866 22.0691 107.362 20.7271 108.488 18.7509C109.613 16.7839 110.176 14.725 110.176 12.565C110.176 4.73386 104.288 0.818274 92.5213 0.818274H90.7124C90.094 0.818274 89.5957 1.31462 89.5957 1.93045V8.40128C89.5957 9.01711 90.094 9.51345 90.7124 9.51345H92.0783C94.4963 9.51345 96.2775 9.89031 97.4035 10.6532C98.5294 11.4161 99.0924 12.6202 99.0924 14.2747C99.0924 15.9291 98.5109 17.2803 97.3389 18.2086C96.1668 19.137 94.4132 19.6057 92.0783 19.6057H88.4882C87.8698 19.6057 87.3715 19.1002 87.3715 18.4844L87.4268 1.93045C87.4268 1.31462 86.9285 0.809082 86.3101 0.809082H77.0811C76.4627 0.809082 75.9644 1.30542 75.9644 1.92126V46.9781C75.9644 47.5939 76.4627 48.0903 77.0811 48.0903H93.8687C99.3508 48.0903 103.808 46.9138 107.251 44.5699C110.693 42.2169 112.41 38.7425 112.41 34.1283C112.41 31.1227 111.644 28.687 110.112 26.8303C108.58 24.9644 106.54 23.696 103.993 23.025V23.0434ZM93.0289 39.4227H88.479C87.8606 39.4227 87.3622 38.9263 87.3622 38.3105V29.0546C87.3622 28.4388 87.8606 27.9425 88.479 27.9425H93.0289C95.8345 27.9425 97.9111 28.3745 99.277 29.2477C100.634 30.1117 101.317 31.4996 101.317 33.4022C101.317 37.4189 98.5571 39.4319 93.0289 39.4319V39.4227Z" fill="#2FC6BD"/>
<path d="M128.736 1.60843L114.708 46.6653C114.486 47.3822 115.022 48.1083 115.778 48.1083H124.989C125.506 48.1083 125.949 47.7591 126.078 47.2627L128.395 38.0896C128.524 37.5932 128.967 37.244 129.484 37.244H138.934C139.663 37.244 140.199 36.5638 140.023 35.856L138.38 29.3209C138.251 28.8245 137.808 28.4752 137.291 28.4752H132.215C131.486 28.4752 130.951 27.7951 131.136 27.0873L131.8 24.4769C132.566 21.4713 133.775 16.416 135.436 9.31092H135.695L137.476 16.4803C138.196 19.633 143.982 42.5567 145.164 47.2535C145.293 47.7499 145.736 48.09 146.244 48.09H155.833C156.589 48.09 157.125 47.3638 156.903 46.6469L142.857 1.60843C142.709 1.13966 142.275 0.827148 141.786 0.827148H129.797C129.308 0.827148 128.875 1.14885 128.727 1.60843H128.736Z" fill="#2FC6BD"/>
<path d="M185.762 21.26L179.837 18.907C177.927 18.1441 176.542 17.565 175.693 17.1606C174.844 16.7561 174.134 16.269 173.562 15.6991C172.989 15.1292 172.703 14.4215 172.703 13.5759C172.703 12.3534 173.202 11.3975 174.198 10.7173C175.195 10.0371 176.57 9.70625 178.305 9.70625C180.04 9.70625 181.757 10.0004 183.307 10.5978C184.59 11.085 185.892 11.7927 187.221 12.7211C187.7 13.052 188.356 12.9417 188.716 12.4913L193.081 7.02232C193.441 6.57194 193.404 5.90096 192.979 5.51491C191.115 3.83286 188.983 2.51848 186.584 1.59013C183.861 0.533108 181.102 0 178.296 0C175.02 0 172.076 0.634215 169.436 1.90264C165.864 3.62146 163.373 6.1767 161.951 9.56837C161.462 10.7265 161.195 11.9766 161.121 13.2358C160.908 16.8756 161.794 19.8996 163.797 22.317C165.606 24.4954 167.904 26.1407 170.71 27.2345L176.764 29.7713C178.674 30.5802 180.013 31.1685 180.779 31.5453C181.545 31.9222 182.181 32.4001 182.689 32.97C183.197 33.5399 183.455 34.2476 183.455 35.0932C183.455 36.4076 182.938 37.4187 181.895 38.1356C180.852 38.8526 179.311 39.211 177.272 39.211C175.444 39.211 173.497 38.7698 171.439 37.8783C169.722 37.1337 168.126 36.2054 166.658 35.084C166.169 34.7164 165.486 34.7715 165.089 35.2403L159.986 41.371C159.598 41.8306 159.644 42.5292 160.106 42.9152C162.293 44.7719 164.775 46.2058 167.544 47.2444C170.664 48.4117 173.82 48.9908 177.004 48.9908C180.705 48.9908 183.917 48.3106 186.658 46.9595C190.968 44.8271 193.681 41.6008 194.779 37.2624C194.936 36.6374 195.028 35.9848 195.065 35.3414C195.268 31.6096 194.484 28.5764 192.703 26.2418C191.106 24.1461 188.78 22.4917 185.725 21.26H185.762Z" fill="#2FC6BD"/>
<path d="M212.628 37.4737V29.6701C212.628 29.0543 213.127 28.558 213.745 28.558H227.376C227.995 28.558 228.493 28.0616 228.493 27.4458V20.1569C228.493 19.5411 227.995 19.0447 227.376 19.0447H213.745C213.127 19.0447 212.628 18.5484 212.628 17.9326V10.2852L212.656 1.94851C212.656 1.33268 212.158 0.827148 211.539 0.827148H202.338C201.72 0.827148 201.221 1.32349 201.221 1.93932V46.9962C201.221 47.612 201.72 48.1083 202.338 48.1083H230.883C231.502 48.1083 232 47.612 232 46.9962V39.7073C232 39.0915 231.502 38.5951 230.883 38.5951H213.745C213.127 38.5951 212.628 38.0988 212.628 37.4829V37.4737Z" fill="#2FC6BD"/>
<path d="M230.182 0.827148H216.043C215.426 0.827148 214.926 1.32509 214.926 1.93932V9.17305C214.926 9.78729 215.426 10.2852 216.043 10.2852H230.182C230.798 10.2852 231.298 9.78729 231.298 9.17305V1.93932C231.298 1.32509 230.798 0.827148 230.182 0.827148Z" fill="#2FC6BD"/>
</g>
<defs>
<clipPath id="clip0_501_1448">
<rect width="232" height="49" fill="white"/>
</clipPath>
</defs>
</svg>
