<svg width="12" height="8" viewBox="0 0 12 8" fill="none" xmlns="http://www.w3.org/2000/svg">
<path d="M0.397102 0.859935C0.475148 0.903366 0.772155 1.06406 1.28813 1.34202C1.80411 1.61998 2.3591 1.91748 2.95312 2.23453C3.54714 2.55158 4.0913 2.84473 4.58559 3.11401C5.07989 3.38328 5.34871 3.5266 5.39207 3.54397C5.47012 3.58741 5.56117 3.61998 5.66523 3.64169C5.7693 3.66341 5.87769 3.67427 5.99043 3.67427C6.10316 3.67427 6.21156 3.66341 6.31562 3.64169C6.41968 3.61998 6.51074 3.58741 6.58878 3.54397C6.63214 3.5266 6.90097 3.38328 7.39526 3.11401C7.88956 2.84473 8.43371 2.55158 9.02773 2.23453C9.62176 1.91748 10.1767 1.61998 10.6927 1.34202C11.2087 1.06406 11.5057 0.903366 11.5838 0.859935C11.7485 0.773072 11.8721 0.608036 11.9545 0.364821C12.0369 0.121606 11.9263 0 11.6228 0H0.358078C0.0545631 0 -0.0560015 0.121606 0.0263811 0.364821C0.108764 0.608036 0.232336 0.773072 0.397102 0.859935ZM11.7398 2.33225C11.6445 2.37568 11.3344 2.5342 10.8098 2.80782C10.2851 3.08143 9.71931 3.37676 9.11228 3.69381C8.50525 4.01086 7.94809 4.30184 7.44079 4.56678C6.93349 4.83171 6.64949 4.98154 6.58878 5.01629C6.47605 5.07709 6.37632 5.11401 6.28961 5.12704C6.20289 5.14007 6.10316 5.14658 5.99043 5.14658C5.87769 5.14658 5.77797 5.14007 5.69125 5.12704C5.60453 5.11401 5.50481 5.07709 5.39207 5.01629C5.33137 4.98154 5.04737 4.83171 4.54006 4.56678C4.03276 4.30184 3.47777 4.01086 2.87507 3.69381C2.27238 3.37676 1.71089 3.08143 1.19057 2.80782C0.670262 2.5342 0.362415 2.37568 0.267024 2.33225C0.136946 2.26276 0.0610686 2.25407 0.0393889 2.30619C0.0177093 2.35831 0.00686954 2.41477 0.00686954 2.47557C0.00686954 2.50163 0.00686954 2.7709 0.00686954 3.28339C0.00686954 3.79588 0.00686954 4.35179 0.00686954 4.95114C0.00686954 5.55049 0.00686954 6.09772 0.00686954 6.59283C0.00686954 7.08795 0.00686954 7.33551 0.00686954 7.33551C0.00686954 7.47448 0.0827473 7.61998 0.234505 7.77199C0.386263 7.924 0.531514 8 0.670264 8H11.3366C11.4754 8 11.6206 7.924 11.7724 7.77199C11.9241 7.61998 12 7.47448 12 7.33551C12 7.33551 12 7.08795 12 6.59283C12 6.09772 12 5.55049 12 4.95114C12 4.35179 12 3.79588 12 3.28339C12 2.7709 12 2.50163 12 2.47557C12 2.41477 11.9892 2.35831 11.9675 2.30619C11.9458 2.25407 11.8699 2.26276 11.7398 2.33225Z" fill="black"/>
</svg>
